<svg xmlns="http://www.w3.org/2000/svg" version="1.1" xmlns:xlink="http://www.w3.org/1999/xlink" xmlns:svgjs="http://svgjs.dev/svgjs" width="100%" height="100%" viewBox="0 0 1000 600"><rect width="1000" height="600" x="0" y="0" fill="#533549"/><g><rect width="333.3333333333333" height="333.3333333333333" rx="13.333333333333334" ry="13.333333333333334" y="194.26615745672333" fill="black" transform="matrix(0.7265587250786455,0,0,0.7265587250786456,0,37.76112332080626)" x="172.0439453125"/><path d="M210.3015250464229 285.93283545814126L263.2371305970963 285.93283545814126Q278.4833425714406 285.93283545814126 289.72071620056386 291.48839096017974Q300.9580898296872 297.07551211847976 307.3343523945268 307.30278474723247Q313.7106149593664 317.5300573759851 313.7106149593664 331.6083400686508L313.7106149593664 331.6083400686508Q313.7106149593664 345.71818841757806 307.3343523945268 355.9454610463307Q300.9580898296872 366.1727336750834 289.72071620056386 371.72828917712184Q278.4833425714406 377.2838446791603 263.2371305970963 377.2838446791603L263.2371305970963 377.2838446791603L228.48334305309427 377.2838446791603L228.48334305309427 435.9328340131802L210.3015250464229 435.9328340131802L210.3015250464229 285.93283545814126ZM228.48334305309427 360.23839029790594L260.52248415860026 360.23839029790594Q278.23081732134796 360.23839029790594 286.4378879493593 352.85202673269566Q294.61339292110915 345.4656631674854 294.61339292110915 331.6083400686508L294.61339292110915 331.6083400686508Q294.61339292110915 317.5300573759851 286.4378879493593 310.2383907795596Q278.23081732134796 302.9782898393957 260.52248415860026 302.9782898393957L260.52248415860026 302.9782898393957L228.48334305309427 302.9782898393957L228.48334305309427 360.23839029790594ZM442.56162381914527 285.93283545814126L466.4252599529014 285.93283545814126L400.9580888663798 352.97828935774197L398.2434424278837 355.9454610463307L358.0287963506279 397.0755111551724L358.0287963506279 372.5174305836614L442.56162381914527 285.93283545814126ZM348.9378873472922 285.93283545814126L367.1197053539636 285.93283545814126L367.1197053539636 435.9328340131802L348.9378873472922 435.9328340131802L348.9378873472922 285.93283545814126ZM387.7952102053 351.62096613849394L402.7888969295516 341.3936935097413L467.1197043906562 435.9328340131802L445.27627025764133 435.9328340131802L387.7952102053 351.62096613849394Z " fill="#533549" transform="matrix(0.7265587250786455,0,0,0.7265587250786456,0,37.76112332080626)"/><path d="M588.7106130900647 300.1220225631032L635.9234486292949 300.1220225631032Q649.5214209402359 300.1220225631032 659.5439429748012 305.0769772768209Q669.5664650093664 310.060085142321 675.2534016694287 319.1817063198467Q680.940338329491 328.3033274973724 680.940338329491 340.85963319236146L680.940338329491 340.85963319236146Q680.940338329491 353.44409203913295 675.2534016694287 362.56571321665865Q669.5664650093664 371.68733439418435 659.5439429748012 376.64228910790195Q649.5214209402359 381.59724382161966 635.9234486292949 381.59724382161966L635.9234486292949 381.59724382161966L604.926828516777 381.59724382161966L604.926828516777 433.9057998334799L588.7106130900647 433.9057998334799L588.7106130900647 300.1220225631032ZM604.926828516777 366.3945418590768L633.502277576001 366.3945418590768Q649.2961957259761 366.3945418590768 656.6160151894226 359.8067043419749Q663.9076815010866 353.2188668248731 663.9076815010866 340.85963319236146L663.9076815010866 340.85963319236146Q663.9076815010866 328.3033274973724 656.6160151894226 321.799949435618Q649.2961957259761 315.32472452564605 633.502277576001 315.32472452564605L633.502277576001 315.32472452564605L604.926828516777 315.32472452564605L604.926828516777 366.3945418590768ZM795.8615039056016 300.1220225631032L817.1452866531615 300.1220225631032L758.7556498562842 359.9193169491049L756.3344788029904 362.56571321665865L720.4673634321023 399.24926998923877L720.4673634321023 377.34611790246413L795.8615039056016 300.1220225631032ZM712.3592557187462 300.1220225631032L728.5754711454584 300.1220225631032L728.5754711454584 433.9057998334799L712.3592557187462 433.9057998334799L712.3592557187462 300.1220225631032ZM747.0157855629873 358.70873142245796L760.3885326596684 349.5871102449323L817.7646559923762 433.9057998334799L798.2826749588954 433.9057998334799L747.0157855629873 358.70873142245796ZM878.9696079675022 435.9328267618189L878.9696079675022 435.9328267618189Q869.2286174507618 435.9328267618189 860.6137530053209 432.2729170300956Q851.99888855988 428.6411604501548 846.6497897212075 420.42044012966875Q841.2725377307526 412.2278729609651 841.2725377307526 399.0521979267614L841.2725377307526 399.0521979267614L841.2725377307526 332.55445341652785L857.4887531574649 332.55445341652785L857.4887531574649 394.7729188558234Q857.4887531574649 410.2008460326261 864.1610501299142 415.97224214803583Q870.861500254146 421.7436382634456 883.0236618241802 421.7436382634456L883.0236618241802 421.7436382634456Q888.7105984842426 421.7436382634456 894.172309930045 419.8292239422365Q899.6340213758474 417.88665646924494 903.9977599021329 413.74814315721943Q908.3614984284183 409.5814766934114 910.8952820888421 403.1062517834394Q913.4290657492659 396.602873721685 913.4290657492659 387.67832460663675L913.4290657492659 387.67832460663675L913.4290657492659 332.55445341652785L929.6452811759782 332.55445341652785L929.6452811759782 433.9057998334799L915.4560926776049 433.9057998334799L914.4425792134355 418.50602580845964Q909.1779398301103 427.62764698598534 900.1407781079322 431.76616029801085Q891.1317695375365 435.9328267618189 878.9696079675022 435.9328267618189ZM966.5259100110356 285.93283406472995L982.7421254377481 285.93283406472995L982.7421254377481 408.173819104287Q982.7421254377481 415.8596295409059 985.5855937677792 418.815710478067Q988.4290620978103 421.7436382634456 994.7072149453049 421.7436382634456L994.7072149453049 421.7436382634456Q998.761268801983 421.7436382634456 1001.4076650695367 421.1242689242309Q1004.025908185308 420.53305273679865 1008.5022593187233 418.9001699334145L1008.5022593187233 418.9001699334145L1005.8558630511695 433.08935843178773Q1002.6182505961837 434.5251691726946 998.761268801983 435.2289979672567Q994.9042870077823 435.9328267618189 990.8502331511042 435.9328267618189L990.8502331511042 435.9328267618189Q978.4909995185926 435.9328267618189 972.5225313407054 429.23237663758704Q966.5259100110356 422.5600796651377 966.5259100110356 408.76503529171924L966.5259100110356 408.76503529171924L966.5259100110356 285.93283406472995ZM1087.1340122472086 300.1220225631032L1139.048424134114 433.9057998334799L1121.818695243232 433.9057998334799L1107.6295067448589 396.79994578416245L1047.0157709571652 396.79994578416245L1032.8265824587918 433.9057998334799L1015.7939256303873 433.9057998334799L1067.8772564279877 300.1220225631032L1087.1340122472086 300.1220225631032ZM1077.2241028197732 315.7188686506008L1052.8997796797048 381.59724382161966L1101.7454980223192 381.59724382161966L1077.2241028197732 315.7188686506008ZM1162.359233810013 285.93283406472995L1178.5754492367253 285.93283406472995L1178.5754492367253 408.173819104287Q1178.5754492367253 415.8596295409059 1181.390764414974 418.815710478067Q1184.234232745005 421.7436382634456 1190.5123855924996 421.7436382634456L1190.5123855924996 421.7436382634456Q1194.5664394491778 421.7436382634456 1197.2128357167314 421.1242689242309Q1199.8592319842853 420.53305273679865 1204.3074299659181 418.9001699334145L1204.3074299659181 418.9001699334145L1201.6610336983642 433.08935843178773Q1198.4234212433782 434.5251691726946 1194.5664394491778 435.2289979672567Q1190.7376108067597 435.9328267618189 1186.6835569500813 435.9328267618189L1186.6835569500813 435.9328267618189Q1174.2961701657873 435.9328267618189 1168.3277019879001 429.23237663758704Q1162.359233810013 422.5600796651377 1162.359233810013 408.76503529171924L1162.359233810013 408.76503529171924L1162.359233810013 285.93283406472995Z " fill="#f6b042" transform="matrix(0.7265587250786455,0,0,0.7265587250786456,0,37.76112332080626)"/></g></svg>